<?xml version="1.0" encoding="UTF-8" standalone="no"?>
<svg
   height="48.766502"
   aria-hidden="true"
   viewBox="0 0 25 24.383251"
   version="1.1"
   width="50"
   data-view-component="true"
   class="octicon octicon-mark-github"
   id="svg4"
   xmlns="http://www.w3.org/2000/svg"
   xmlns:svg="http://www.w3.org/2000/svg">
  <path
     fill-rule="evenodd"
     d="M 12.5,-1.087863e-6 C 5.5937505,-1.087863e-6 4.6781203e-7,5.5937489 4.6781203e-7,12.499999 4.6781203e-7,18.031249 3.5781255,22.703124 8.5468755,24.359374 c 0.625,0.109375 0.859375,-0.265625 0.859375,-0.59375 0,-0.296875 -0.01563,-1.28125 -0.01563,-2.328125 -3.14062,0.578125 -3.95312,-0.765625 -4.20312,-1.46875 -0.140625,-0.359375 -0.75,-1.46875 -1.28125,-1.765625 -0.4375,-0.234375 -1.0625,-0.8125 -0.01563,-0.828125 0.984375,-0.01563 1.6875,0.90625 1.921875,1.28125 1.125,1.890625 2.921875,1.359375 3.640625,1.03125 0.109375,-0.8125 0.4375,-1.359375 0.7968745,-1.671875 -2.7812495,-0.3125 -5.6874995,-1.390625 -5.6874995,-6.171875 0,-1.359375 0.484375,-2.4843751 1.28125,-3.3593751 -0.125,-0.3125 -0.5625,-1.59375 0.125,-3.3125 0,0 1.046875,-0.328125 3.4375,1.28125 0.9999995,-0.28125 2.0624995,-0.421875 3.1249995,-0.421875 1.0625,0 2.125,0.140625 3.125,0.421875 2.390625,-1.625 3.4375,-1.28125 3.4375,-1.28125 0.6875,1.71875 0.25,3 0.125,3.3125 0.796875,0.875 1.28125,1.9843751 1.28125,3.3593751 0,4.796875 -2.921875,5.859375 -5.703125,6.171875 0.453125,0.390625 0.84375,1.140625 0.84375,2.3125 0,1.671875 -0.01563,3.015625 -0.01563,3.4375 0,0.328125 0.234375,0.71875 0.859375,0.59375 A 12.520312,12.520312 0 0 0 25,12.499999 C 25,5.5937489 19.40625,-1.087863e-6 12.5,-1.087863e-6 Z"
     id="path2"
     style="stroke-width:1.5625" />
</svg>
