<?xml version="1.0" encoding="UTF-8" standalone="no"?>
<svg
   height="249.68452"
   aria-hidden="true"
   viewBox="0 0 128 124.84226"
   version="1.1"
   width="256"
   data-view-component="true"
   class="octicon octicon-mark-github"
   id="svg4"
   xmlns="http://www.w3.org/2000/svg"
   xmlns:svg="http://www.w3.org/2000/svg">
  <defs
     id="defs8" />
  <path
     fill-rule="evenodd"
     d="M 64,0 C 28.64,0 0,28.64 0,64 c 0,28.32 18.32,52.24 43.76,60.72 3.2,0.56 4.4,-1.36 4.4,-3.04 0,-1.52 -0.08,-6.56 -0.08,-11.92 C 32,112.72 27.84,105.84 26.56,102.24 25.84,100.4 22.72,94.72 20,93.2 17.76,92 14.56,89.04 19.92,88.96 c 5.04,-0.08 8.64,4.64 9.84,6.56 5.76,9.68 14.96,6.96 18.64,5.28 0.56,-4.16 2.24,-6.96 4.08,-8.56 -14.24,-1.6 -29.12,-7.12 -29.12,-31.6 0,-6.96 2.48,-12.72 6.56,-17.2 -0.64,-1.6 -2.88,-8.16 0.64,-16.96 0,0 5.36,-1.68 17.6,6.56 5.12,-1.44 10.56,-2.16 16,-2.16 5.44,0 10.88,0.72 16,2.16 12.24,-8.32 17.6,-6.56 17.6,-6.56 3.52,8.8 1.28,15.36 0.64,16.96 4.08,4.48 6.56,10.16 6.56,17.2 0,24.56 -14.96,30 -29.2,31.6 2.32,2 4.32,5.84 4.32,11.84 0,8.56 -0.08,15.44 -0.08,17.6 0,1.68 1.2,3.68 4.4,3.04 A 64.104,64.104 0 0 0 128,64 C 128,28.64 99.36,0 64,0 Z"
     id="path2"
     style="stroke-width:8" />
</svg>
